# xmcd
#
# Track frame offsets:
#	150
#	10787
#	21834
#	32767
#	42257
#	51746
#	65285
#	74267
#	84468
#	97231
#	107424
#	117700
#	129398
#	143405
#	153687
#	164374
#	173862
#	184582
#	195786
#	204930
#	214407
#	227770
#	238432
#	248912
#	260252
#
# Disc length: 3629 seconds
# Revision: 0
# Processed by: cddbd v1.5.2PL0 Copyright (c) Steve Scherf et al.
# Submitted via: dBpowerAMP V12.0
#
DISCID=630e2b19
DTITLE=The Everly Brothers - Greatest Hits, Disc 2 of 3
DYEAR=2013
DGENRE=Pop
TTITLE0=All I Have to Do Is Dream
TTITLE1=Take a Message to Mary
TTITLE2=Cathy's Clwn
TTITLE3=Hey Doll Baby
TTITLE4=Love of My Life
TTITLE5=Rockin' Alone in an Old Rockin' Chair
TTITLE6=Step It Up and Go
TTITLE7=Brand New Heartache
TTITLE8=My Gal Sal
TTITLE9=Rip It Up
TTITLE10=So How Come (No One Loves Me)
TTITLE11=Oh So Many Years
TTITLE12=Ebony Eyes
TTITLE13=Bird Dog
TTITLE14=That's Old Fashioned (That's the Way Love Should Be)
TTITLE15=Oh What A Feeling
TTITLE16=Jezebel
TTITLE17=Don't Ask Me to Be Friends
TTITLE18=I'm Not Angry
TTITLE19=True Love
TTITLE20=Autumn Leaves
TTITLE21=The Wayward Wind
TTITLE22=Muskrat
TTITLE23=When I Grow Too Old to Dream
TTITLE24=Now Is the Hour
EXTD=
EXTT0=
EXTT1=
EXTT2=
EXTT3=
EXTT4=
EXTT5=
EXTT6=
EXTT7=
EXTT8=
EXTT9=
EXTT10=
EXTT11=
EXTT12=
EXTT13=
EXTT14=
EXTT15=
EXTT16=
EXTT17=
EXTT18=
EXTT19=
EXTT20=
EXTT21=
EXTT22=
EXTT23=
EXTT24=
PLAYORDER=
